<svg viewBox="0 0 800 1422.22" xmlns="http://www.w3.org/2000/svg" preserveAspectRatio="none">
  <!-- Journey/Progress themed background -->
  <defs>
    <linearGradient id="horizonGradient" x1="0%" y1="0%" x2="0%" y2="100%">
      <stop offset="0%" style="stop-color:#0f172a;stop-opacity:1" />
      <stop offset="30%" style="stop-color:#1e293b;stop-opacity:1" />
      <stop offset="70%" style="stop-color:#334155;stop-opacity:1" />
      <stop offset="100%" style="stop-color:#475569;stop-opacity:1" />
    </linearGradient>
    
    <linearGradient id="pathGradient" x1="0%" y1="100%" x2="100%" y2="0%">
      <stop offset="0%" style="stop-color:#475569;stop-opacity:1" />
      <stop offset="50%" style="stop-color:#6366f1;stop-opacity:1" />
      <stop offset="100%" style="stop-color:#f59e0b;stop-opacity:1" />
    </linearGradient>
    
    <linearGradient id="progressBlue" x1="0%" y1="0%" x2="100%" y2="100%">
      <stop offset="0%" style="stop-color:#3b82f6;stop-opacity:1" />
      <stop offset="100%" style="stop-color:#1d4ed8;stop-opacity:1" />
    </linearGradient>
    
    <linearGradient id="progressGold" x1="0%" y1="0%" x2="100%" y2="100%">
      <stop offset="0%" style="stop-color:#f59e0b;stop-opacity:1" />
      <stop offset="100%" style="stop-color:#d97706;stop-opacity:1" />
    </linearGradient>
    
    <filter id="progressGlow">
      <feGaussianBlur stdDeviation="3" result="coloredBlur"/>
      <feMerge> 
        <feMergeNode in="coloredBlur"/>
        <feMergeNode in="SourceGraphic"/>
      </feMerge>
    </filter>
  </defs>
  
  <!-- Gradient background - extended slightly beyond viewbox to eliminate any edge lines -->
  <rect x="-5" y="-5" width="810" height="1432.22" fill="url(#horizonGradient)"/>
  
  <!-- Main Header with progression theme -->
  <g transform="translate(400, 70)">
    <text x="0" y="0" text-anchor="middle" font-family="Arial, sans-serif" font-size="48" font-weight="900" fill="#ffffff" filter="url(#progressGlow)">
      RADIX
    </text>
    <text x="0" y="35" text-anchor="middle" font-family="Arial, sans-serif" font-size="18" font-weight="300" fill="#e5e7eb" letter-spacing="6px">
      FITNESS
    </text>
    
    <!-- Progress bar under title -->
    <rect x="-100" y="50" width="200" height="4" rx="2" fill="rgba(255,255,255,0.2)"/>
    <rect x="-100" y="50" width="140" height="4" rx="2" fill="url(#progressGold)">
      <animate attributeName="width" values="0;200" dur="18s" repeatCount="indefinite"/>
    </rect>
  </g>
  
  <!-- Subtitle with journey theme -->
  <text x="400" y="140" text-anchor="middle" font-family="Arial, sans-serif" font-size="16" fill="#d1d5db">
    Every step forward is progress
  </text>
  
  <!-- Mobile Quote Layout - Side by side under title -->
  <g transform="translate(20, 180)">
    <!-- Left Quote - START NOW -->
    <g>
      <!-- Card with progression theme - made taller -->
      <rect x="0" y="0" width="360" height="220" rx="15" fill="rgba(15,23,42,0.9)" stroke="url(#progressBlue)" stroke-width="2"/>
      
      <!-- Quote text - START NOW on first line, NOT TOMORROW on second line -->
      <text x="180" y="55" text-anchor="middle" font-family="Arial, sans-serif" font-size="23" font-weight="700" fill="#ffffff">
        START NOW.
      </text>
      <text x="180" y="85" text-anchor="middle" font-family="Arial, sans-serif" font-size="23" font-weight="700" fill="#2a64e5">
        NOT TOMORROW
      </text>
      
      <!-- Stage indicator - Seed in pot -->
      <g transform="translate(180, 135)">
        <circle cx="0" cy="0" r="21" fill="rgba(59,130,246,0.2)" stroke="url(#progressBlue)" stroke-width="3"/>
        <!-- Pot -->
        <path d="M-10.5,10.5 L-9,3 L9,3 L10.5,10.5 Z" fill="#8b4513"/>
        <!-- Soil -->
        <ellipse cx="0" cy="9" rx="9" ry="3" fill="#654321"/>
        <!-- Seed -->
        <circle cx="0" cy="6" r="3" fill="url(#progressBlue)"/>
      </g>
      
      <text x="180" y="180" text-anchor="middle" font-family="Arial, sans-serif" font-size="18" fill="#64748b">
        THE BEGINNING
      </text>
    </g>
    
    <!-- Right Quote - PROGRESS -->
    <g transform="translate(400, 0)">
      <!-- Card with mastery theme - made taller -->
      <rect x="0" y="0" width="360" height="220" rx="15" fill="rgba(15,23,42,0.9)" stroke="url(#progressGold)" stroke-width="2"/>
      
      <!-- Quote text - PROGRESS on first line, NOT PERFECTION on second line -->
      <text x="180" y="55" text-anchor="middle" font-family="Arial, sans-serif" font-size="23" font-weight="700" fill="#ffffff">
        PROGRESS
      </text>
      <text x="180" y="85" text-anchor="middle" font-family="Arial, sans-serif" font-size="23" font-weight="700" fill="#f59e0b">
        NOT PERFECTION
      </text>
      
      <!-- Stage indicator - Growing plant -->
      <g transform="translate(180, 135)">
        <circle cx="0" cy="0" r="21" fill="rgba(245,158,11,0.2)" stroke="url(#progressGold)" stroke-width="3"/>
        <!-- Pot -->
        <path d="M-10.5,10.5 L-9,3 L9,3 L10.5,10.5 Z" fill="#8b4513"/>
        <!-- Soil -->
        <ellipse cx="0" cy="9" rx="9" ry="3" fill="#654321"/>
        <!-- Stem -->
        <line x1="0" y1="6" x2="0" y2="-7.5" stroke="#22c55e" stroke-width="3.75"/>
        <!-- Leaves -->
        <ellipse cx="-4.5" cy="-1.5" rx="3.75" ry="3" fill="#22c55e"/>
        <ellipse cx="4.5" cy="-3" rx="3.75" ry="3" fill="#22c55e"/>
        <!-- Small bud -->
        <circle cx="0" cy="-7.5" r="2.25" fill="url(#progressGold)"/>
      </g>
      
      <text x="180" y="180" text-anchor="middle" font-family="Arial, sans-serif" font-size="18" fill="#f59e0b">
        THE CLIMB
      </text>
    </g>
  </g>
  
  <!-- Mountain Trail Progress Path - Bottom positioned, now at 45 degree angle -->
  <g transform="translate(0, 960)">
    <!-- Mountain terrain backdrop -->
    <g opacity="0.3">
      <path d="M0,400 L400,0 L800,0 L800,400 Z" 
            fill="rgba(71,85,105,0.4)"/>
      <path d="M0,380 L380,0 L800,0 L800,380 Z" 
            fill="rgba(51,65,85,0.6)"/>
    </g>
    
    <!-- Zigzag mountain trail with 45-degree overall direction -->
    <g>
      <!-- Trail shadow/depth -->
      <path d="M50,400 Q150,370 200,340 Q300,300 350,280 Q450,250 500,200 Q580,150 650,120 Q700,90 730,60" 
            stroke="rgba(0,0,0,0.3)" stroke-width="25" fill="none"/>
      
      <!-- Main cobblestone trail -->
      <path d="M50,398 Q150,368 200,338 Q300,298 350,278 Q450,248 500,198 Q580,148 650,118 Q700,88 730,58" 
            stroke="url(#pathGradient)" stroke-width="20" fill="none" opacity="0.9"/>
      
      <!-- Trail center line -->
      <path d="M50,398 Q150,368 200,338 Q300,298 350,278 Q450,248 500,198 Q580,148 650,118 Q700,88 730,58" 
            stroke="rgba(255,255,255,0.4)" stroke-width="2" fill="none" stroke-dasharray="8,6"/>
      
      <!-- Cobblestone texture -->
      <g opacity="0.6">
        <circle cx="120" cy="370" r="2" fill="rgba(255,255,255,0.3)"/>
        <circle cx="175" cy="350" r="1.5" fill="rgba(255,255,255,0.2)"/>
        <circle cx="250" cy="320" r="2" fill="rgba(255,255,255,0.3)"/>
        <circle cx="320" cy="290" r="1.5" fill="rgba(255,255,255,0.2)"/>
        <circle cx="425" cy="230" r="2" fill="rgba(255,255,255,0.3)"/>
        <circle cx="520" cy="185" r="1.5" fill="rgba(255,255,255,0.2)"/>
        <circle cx="620" cy="130" r="2" fill="rgba(255,255,255,0.3)"/>
        <circle cx="685" cy="100" r="1.5" fill="rgba(255,255,255,0.2)"/>
      </g>
    </g>
    
    <!-- Milestones positioned exactly on the zigzag road path -->
    <!-- START Platform -->
    <g transform="translate(110, 380)">
      <circle cx="0" cy="0" r="13.5" fill="url(#progressBlue)" stroke="#ffffff" stroke-width="2"/>
      
      <!-- Barren soil and seed -->
      <ellipse cx="0" cy="6" rx="9" ry="2.5" fill="#8b7355"/>
      <path d="M-5,8 L-4,4 L4,4 L5,8 Z" fill="#8b4513"/>
      <circle cx="0" cy="5" r="1.5" fill="url(#progressBlue)"/>
      <circle cx="-2.5" cy="6" r="0.75" fill="#654321"/>
      <circle cx="2.5" cy="6" r="0.75" fill="#654321"/>
      
      <text x="0" y="30" text-anchor="middle" font-family="Arial, sans-serif" font-size="15" fill="#ffffff" font-weight="700">START</text>
      <text x="0" y="48" text-anchor="middle" font-family="Arial, sans-serif" font-size="12" fill="#94a3b8">The Journey Begins</text>
    </g>
    
    <!-- PROGRESS Platform -->
    <g transform="translate(275, 310)">
      <circle cx="0" cy="0" r="16" fill="url(#progressBlue)" stroke="#ffffff" stroke-width="2"/>
      
      <!-- Sprouting plant -->
      <ellipse cx="0" cy="7.5" rx="10" ry="3" fill="#654321"/>
      <path d="M-5.5,10 L-5,5 L5,5 L5.5,10 Z" fill="#8b4513"/>
      <line x1="0" y1="5" x2="0" y2="-0.5" stroke="#22c55e" stroke-width="2.5"/>
      <ellipse cx="-3" cy="2" rx="2.5" ry="1.5" fill="#22c55e"/>
      <ellipse cx="3" cy="1" rx="2.5" ry="1.5" fill="#22c55e"/>
      <ellipse cx="0" cy="-0.5" rx="1.5" ry="1.25" fill="#65a30d"/>
      
      <text x="0" y="35" text-anchor="middle" font-family="Arial, sans-serif" font-size="15" fill="#ffffff" font-weight="700">PROGRESS</text>
      <text x="0" y="53" text-anchor="middle" font-family="Arial, sans-serif" font-size="12" fill="#94a3b8">Growth Emerges</text>
    </g>
    
    <!-- MASTERY Platform -->
    <g transform="translate(475, 225)">
      <circle cx="0" cy="0" r="18.5" fill="url(#progressGold)" stroke="#ffffff" stroke-width="2"/>
      
      <!-- Mature tree -->
      <ellipse cx="0" cy="9" rx="12.5" ry="3.5" fill="#654321"/>
      <path d="M-6.5,12 L-5.5,6 L5.5,6 L6.5,12 Z" fill="#8b4513"/>
      <line x1="0" y1="6" x2="0" y2="-4" stroke="#8b4513" stroke-width="3"/>
      <circle cx="0" cy="-4" r="6" fill="#22c55e"/>
      <circle cx="-3.5" cy="-1.5" r="3" fill="#22c55e"/>
      <circle cx="3.5" cy="-3" r="3" fill="#22c55e"/>
      <circle cx="0" cy="-8" r="3" fill="#22c55e"/>
      <ellipse cx="-2.5" cy="-6" rx="1.5" ry="2.5" fill="#15803d"/>
      <ellipse cx="2.5" cy="-5.5" rx="1.5" ry="2.5" fill="#15803d"/>
      
      <text x="0" y="40" text-anchor="middle" font-family="Arial, sans-serif" font-size="15" fill="#ffffff" font-weight="700">MASTERY</text>
      <text x="0" y="58" text-anchor="middle" font-family="Arial, sans-serif" font-size="12" fill="#f59e0b">Strength Achieved</text>
    </g>
    
    <!-- LEGEND Platform -->
    <g transform="translate(675, 105)">
      <circle cx="0" cy="0" r="21.5" fill="url(#progressGold)" stroke="#ffffff" stroke-width="2.5"/>
      
      <!-- Legendary blossoming tree -->
      <ellipse cx="0" cy="11" rx="15" ry="4" fill="#654321"/>
      <path d="M-7.5,14 L-6.5,7.5 L6.5,7.5 L7.5,14 Z" fill="#8b4513"/>
      <line x1="0" y1="7.5" x2="0" y2="-6" stroke="#8b4513" stroke-width="4"/>
      
      <!-- Multiple canopy layers -->
      <circle cx="0" cy="-6" r="8.5" fill="#22c55e"/>
      <circle cx="-4" cy="-3.5" r="4" fill="#22c55e"/>
      <circle cx="4" cy="-4.5" r="4" fill="#22c55e"/>
      <circle cx="0" cy="-11.5" r="4" fill="#22c55e"/>
      <circle cx="-3" cy="-9.5" r="3" fill="#15803d"/>
      <circle cx="3" cy="-10.5" r="3" fill="#15803d"/>
      
      <!-- Abundant blossoms -->
      <circle cx="-2.5" cy="-9.5" r="1.5" fill="#ff69b4"/>
      <circle cx="2.5" cy="-9" r="1.5" fill="#ff69b4"/>
      <circle cx="0" cy="-3.5" r="1.5" fill="#ff69b4"/>
      <circle cx="1" cy="-11.5" r="1.5" fill="#ff69b4"/>
      <circle cx="-1" cy="-12" r="1.5" fill="#ff69b4"/>
      <circle cx="-3.5" cy="-7" r="1.25" fill="#fbbf24"/>
      <circle cx="3.5" cy="-6.5" r="1.25" fill="#fbbf24"/>
      <circle cx="0.5" cy="-14" r="1.25" fill="#fbbf24"/>
      
      <text x="0" y="45" text-anchor="middle" font-family="Arial, sans-serif" font-size="15" fill="#ffffff" font-weight="700">LEGEND</text>
      <text x="0" y="63" text-anchor="middle" font-family="Arial, sans-serif" font-size="12" fill="#f59e0b">Eternal Mastery</text>
    </g>
    
    <!-- Floating particle effects between stages -->
    <g opacity="0.6">
      <!-- Sparkles from START to PROGRESS -->
      <circle cx="190" cy="345" r="1.5" fill="#3b82f6">
        <animate attributeName="cy" values="345;335;345" dur="4s" repeatCount="indefinite"/>
        <animate attributeName="opacity" values="0.6;1;0.6" dur="4s" repeatCount="indefinite"/>
      </circle>
      <circle cx="230" cy="325" r="1" fill="#60a5fa">
        <animate attributeName="cy" values="325;315;325" dur="3s" repeatCount="indefinite"/>
        <animate attributeName="opacity" values="0.4;0.8;0.4" dur="3s" repeatCount="indefinite"/>
      </circle>
      
      <!-- Growing energy from PROGRESS to MASTERY -->
      <circle cx="360" cy="265" r="2" fill="#22c55e">
        <animate attributeName="cy" values="265;255;265" dur="5s" repeatCount="indefinite"/>
        <animate attributeName="opacity" values="0.5;1;0.5" dur="5s" repeatCount="indefinite"/>
      </circle>
      <circle cx="415" cy="245" r="1.5" fill="#4ade80">
        <animate attributeName="cy" values="245;235;245" dur="4s" repeatCount="indefinite"/>
        <animate attributeName="opacity" values="0.4;0.9;0.4" dur="4s" repeatCount="indefinite"/>
      </circle>
      
      <!-- Golden petals from MASTERY to LEGEND -->
      <circle cx="570" cy="165" r="2" fill="#f59e0b">
        <animate attributeName="cy" values="165;155;165" dur="6s" repeatCount="indefinite"/>
        <animate attributeName="opacity" values="0.6;1;0.6" dur="6s" repeatCount="indefinite"/>
      </circle>
      <circle cx="620" cy="135" r="1.5" fill="#fbbf24">
        <animate attributeName="cy" values="135;125;135" dur="5s" repeatCount="indefinite"/>
        <animate attributeName="opacity" values="0.5;0.9;0.5" dur="5s" repeatCount="indefinite"/>
      </circle>
      <circle cx="650" cy="120" r="1" fill="#ff69b4">
        <animate attributeName="cy" values="120;110;120" dur="4s" repeatCount="indefinite"/>
        <animate attributeName="opacity" values="0.4;0.8;0.4" dur="4s" repeatCount="indefinite"/>
      </circle>
    </g>
  </g>
  
  <!-- Animated progress elements -->
  <g opacity="0.8">
    <!-- Pulsing achievement stars -->
    <g transform="translate(150, 450)">
      <polygon points="0,-8 2,-2 8,-2 3,1 5,7 0,4 -5,7 -3,1 -8,-2 -2,-2" fill="url(#progressGold)" opacity="0.6">
        <animate attributeName="opacity" values="0.6;1;0.6" dur="3s" repeatCount="indefinite"/>
        <animateTransform attributeName="transform" type="scale" values="1;1.2;1" dur="3s" repeatCount="indefinite"/>
      </polygon>
    </g>
    
    <g transform="translate(650, 470)">
      <polygon points="0,-6 1.5,-1.5 6,-1.5 2.25,0.75 3.75,5.25 0,3 -3.75,5.25 -2.25,0.75 -6,-1.5 -1.5,-1.5" fill="url(#progressGold)" opacity="0.4">
        <animate attributeName="opacity" values="0.4;0.9;0.4" dur="4s" repeatCount="indefinite"/>
        <animateTransform attributeName="transform" type="scale" values="1;1.3;1" dur="4s" repeatCount="indefinite"/>
      </polygon>
    </g>
  </g>
</svg>